# xmcd
#
# Track frame offsets: 
#        150
#        19742
#        35859
#        52031
#        66256
#        83650
#        100954
#        117070
#        130880
#        145327
#
# Disc length: 2311 seconds
#
# Revision: 0
# Processed by: cddbd v1.5.2PL0 Copyright (c) Steve Scherf et al.
# Submitted via: ExactAudioCopy v1.0b3
#
DISCID=8c09050a
DTITLE=Brett Kissel - Started with a Song
DYEAR=2013
DGENRE=Country
TTITLE0=Started with a Song
TTITLE1=Tough People Do
TTITLE2=3, 2, 1
TTITLE3=Something You Just Don't Forget
TTITLE4=Raise Your Glass
TTITLE5=Country in My Blood
TTITLE6=My Cowgirl
TTITLE7=Girl in a Cowboy Hat
TTITLE8=Canadian Kid
TTITLE9=Together (Grandma and Grandpa's Song)
EXTD=
EXTT0=
EXTT1=
EXTT2=
EXTT3=
EXTT4=
EXTT5=
EXTT6=
EXTT7=
EXTT8=
EXTT9=
PLAYORDER=
